<?xml version="1.0" encoding="UTF-8"?>
<svg xmlns="http://www.w3.org/2000/svg" xmlns:xlink="http://www.w3.org/1999/xlink" width="160" height="132" viewBox="0 0 160 132">
<defs>
<linearGradient id="linear-pattern-0" gradientUnits="userSpaceOnUse" x1="0" y1="0" x2="1" y2="1" gradientTransform="matrix(48, 0, 0, 48, 56, 8)">
<stop offset="0" stop-color="rgb(91.764706%, 0%, 17.254902%)" stop-opacity="1"/>
<stop offset="1" stop-color="rgb(95.686275%, 46.666667%, 14.509804%)" stop-opacity="1"/>
</linearGradient>
<linearGradient id="linear-pattern-1" gradientUnits="userSpaceOnUse" x1="0" y1="0" x2="1" y2="1" gradientTransform="matrix(115.425781, 0, 0, 19.195312, 22.813965, 73.287109)">
<stop offset="0" stop-color="rgb(91.764706%, 0%, 17.254902%)" stop-opacity="1"/>
<stop offset="1" stop-color="rgb(95.686275%, 46.666667%, 14.509804%)" stop-opacity="1"/>
</linearGradient>
</defs>
<path fill-rule="nonzero" fill="url(#linear-pattern-0)" d="M 67 8 L 93 8 C 99.074219 8 104 12.925781 104 19 L 104 45 C 104 51.074219 99.074219 56 93 56 L 67 56 C 60.925781 56 56 51.074219 56 45 L 56 19 C 56 12.925781 60.925781 8 67 8 Z M 67 8 "/>
<path fill="none" stroke-width="2" stroke-linecap="round" stroke-linejoin="round" stroke="rgb(100%, 100%, 100%)" stroke-opacity="1" stroke-miterlimit="4" d="M 22 12 C 22 17.523438 17.523438 22 12 22 C 6.476562 22 2 17.523438 2 12 C 2 6.476562 6.476562 2 12 2 C 17.523438 2 22 6.476562 22 12 Z M 22 12 " transform="matrix(1, 0, 0, 1, 68, 20)"/>
<path fill="none" stroke-width="2" stroke-linecap="round" stroke-linejoin="round" stroke="rgb(100%, 100%, 100%)" stroke-opacity="1" stroke-miterlimit="4" d="M 14.308594 8 L 20.050781 17.941406 " transform="matrix(1, 0, 0, 1, 68, 20)"/>
<path fill="none" stroke-width="2" stroke-linecap="round" stroke-linejoin="round" stroke="rgb(100%, 100%, 100%)" stroke-opacity="1" stroke-miterlimit="4" d="M 9.691406 8 L 21.171875 8 " transform="matrix(1, 0, 0, 1, 68, 20)"/>
<path fill="none" stroke-width="2" stroke-linecap="round" stroke-linejoin="round" stroke="rgb(100%, 100%, 100%)" stroke-opacity="1" stroke-miterlimit="4" d="M 7.378906 12 L 13.121094 2.058594 " transform="matrix(1, 0, 0, 1, 68, 20)"/>
<path fill="none" stroke-width="2" stroke-linecap="round" stroke-linejoin="round" stroke="rgb(100%, 100%, 100%)" stroke-opacity="1" stroke-miterlimit="4" d="M 9.691406 16 L 3.949219 6.058594 " transform="matrix(1, 0, 0, 1, 68, 20)"/>
<path fill="none" stroke-width="2" stroke-linecap="round" stroke-linejoin="round" stroke="rgb(100%, 100%, 100%)" stroke-opacity="1" stroke-miterlimit="4" d="M 14.308594 16 L 2.828125 16 " transform="matrix(1, 0, 0, 1, 68, 20)"/>
<path fill="none" stroke-width="2" stroke-linecap="round" stroke-linejoin="round" stroke="rgb(100%, 100%, 100%)" stroke-opacity="1" stroke-miterlimit="4" d="M 16.621094 12 L 10.878906 21.941406 " transform="matrix(1, 0, 0, 1, 68, 20)"/>
<path fill-rule="nonzero" fill="url(#linear-pattern-1)" d="M 31.292969 92 L 22.8125 92 L 22.8125 73.289062 L 31.902344 73.289062 C 34.195312 73.320312 35.820312 73.984375 36.777344 75.28125 C 37.355469 76.078125 37.640625 77.027344 37.640625 78.136719 C 37.640625 79.28125 37.355469 80.199219 36.777344 80.890625 C 36.457031 81.28125 35.984375 81.636719 35.355469 81.957031 C 36.3125 82.304688 37.035156 82.855469 37.519531 83.609375 C 38.007812 84.363281 38.25 85.277344 38.25 86.351562 C 38.25 87.460938 37.972656 88.453125 37.414062 89.335938 C 37.058594 89.917969 36.613281 90.410156 36.082031 90.804688 C 35.480469 91.261719 34.769531 91.578125 33.953125 91.746094 C 33.136719 91.914062 32.25 92 31.292969 92 Z M 31.207031 83.761719 L 26.546875 83.761719 L 26.546875 88.75 L 31.140625 88.75 C 31.960938 88.75 32.601562 88.640625 33.058594 88.421875 C 33.886719 88.015625 34.300781 87.234375 34.300781 86.085938 C 34.300781 85.109375 33.902344 84.441406 33.097656 84.078125 C 32.648438 83.875 32.019531 83.769531 31.207031 83.761719 Z M 33.148438 80.195312 C 33.65625 79.890625 33.910156 79.34375 33.910156 78.554688 C 33.910156 77.683594 33.570312 77.109375 32.894531 76.828125 C 32.308594 76.632812 31.566406 76.539062 30.660156 76.539062 L 26.546875 76.539062 L 26.546875 80.664062 L 31.140625 80.664062 C 31.960938 80.664062 32.632812 80.507812 33.148438 80.195312 Z M 52.773438 79.914062 C 53.941406 81.378906 54.527344 83.109375 54.527344 85.105469 C 54.527344 87.136719 53.945312 88.875 52.773438 90.316406 C 51.605469 91.761719 49.835938 92.484375 47.457031 92.484375 C 45.078125 92.484375 43.304688 91.761719 42.136719 90.316406 C 40.96875 88.875 40.382812 87.136719 40.382812 85.105469 C 40.382812 83.109375 40.96875 81.378906 42.136719 79.914062 C 43.304688 78.449219 45.078125 77.71875 47.457031 77.71875 C 49.835938 77.71875 51.609375 78.449219 52.773438 79.914062 Z M 47.445312 80.777344 C 46.386719 80.777344 45.570312 81.152344 45 81.902344 C 44.429688 82.648438 44.140625 83.71875 44.140625 85.105469 C 44.140625 86.492188 44.429688 87.566406 45 88.320312 C 45.570312 89.070312 46.386719 89.449219 47.445312 89.449219 C 48.5 89.449219 49.3125 89.070312 49.882812 88.320312 C 50.449219 87.566406 50.730469 86.496094 50.730469 85.105469 C 50.730469 83.71875 50.449219 82.648438 49.882812 81.902344 C 49.3125 81.152344 48.5 80.777344 47.445312 80.777344 Z M 64.886719 81.96875 C 64.582031 81.300781 63.984375 80.96875 63.097656 80.96875 C 62.066406 80.96875 61.371094 81.300781 61.015625 81.96875 C 60.820312 82.351562 60.722656 82.917969 60.722656 83.671875 L 60.722656 92 L 57.054688 92 L 57.054688 78.1875 L 60.570312 78.1875 L 60.570312 80.207031 C 61.019531 79.488281 61.441406 78.976562 61.839844 78.671875 C 62.542969 78.128906 63.453125 77.859375 64.570312 77.859375 C 65.628906 77.859375 66.484375 78.089844 67.132812 78.554688 C 67.660156 78.988281 68.058594 79.542969 68.328125 80.21875 C 68.800781 79.40625 69.390625 78.808594 70.09375 78.429688 C 70.835938 78.046875 71.667969 77.859375 72.582031 77.859375 C 73.191406 77.859375 73.792969 77.976562 74.382812 78.210938 C 74.976562 78.449219 75.515625 78.863281 75.996094 79.457031 C 76.386719 79.9375 76.648438 80.53125 76.78125 81.234375 C 76.867188 81.699219 76.910156 82.382812 76.910156 83.277344 L 76.882812 92 L 73.179688 92 L 73.179688 83.1875 C 73.179688 82.664062 73.09375 82.234375 72.921875 81.894531 C 72.601562 81.25 72.007812 80.929688 71.148438 80.929688 C 70.148438 80.929688 69.457031 81.34375 69.078125 82.171875 C 68.882812 82.613281 68.785156 83.144531 68.785156 83.761719 L 68.785156 92 L 65.140625 92 L 65.140625 83.761719 C 65.140625 82.941406 65.058594 82.34375 64.886719 81.96875 Z M 80.527344 73.289062 L 84.4375 73.289062 L 84.4375 88.636719 L 93.703125 88.636719 L 93.703125 92 L 80.527344 92 Z M 107.960938 87.9375 C 107.867188 88.757812 107.441406 89.59375 106.679688 90.4375 C 105.496094 91.785156 103.835938 92.457031 101.703125 92.457031 C 99.945312 92.457031 98.390625 91.890625 97.046875 90.757812 C 95.699219 89.621094 95.027344 87.777344 95.027344 85.21875 C 95.027344 82.824219 95.632812 80.988281 96.847656 79.710938 C 98.0625 78.433594 99.640625 77.792969 101.578125 77.792969 C 102.726562 77.792969 103.765625 78.007812 104.6875 78.441406 C 105.609375 78.875 106.371094 79.554688 106.972656 80.484375 C 107.515625 81.304688 107.867188 82.257812 108.027344 83.34375 C 108.121094 83.976562 108.15625 84.890625 108.140625 86.085938 L 98.671875 86.085938 C 98.722656 87.472656 99.15625 88.445312 99.976562 89.003906 C 100.476562 89.351562 101.078125 89.523438 101.78125 89.523438 C 102.523438 89.523438 103.128906 89.3125 103.59375 88.890625 C 103.847656 88.660156 104.074219 88.34375 104.269531 87.9375 Z M 104.382812 83.695312 C 104.324219 82.742188 104.035156 82.015625 103.511719 81.519531 C 102.992188 81.023438 102.347656 80.777344 101.578125 80.777344 C 100.738281 80.777344 100.089844 81.039062 99.628906 81.5625 C 99.167969 82.089844 98.878906 82.800781 98.757812 83.695312 Z M 117.089844 80.839844 C 115.863281 80.839844 115.019531 81.359375 114.5625 82.402344 C 114.324219 82.953125 114.207031 83.65625 114.207031 84.507812 L 114.207031 92 L 110.601562 92 L 110.601562 78.1875 L 114.089844 78.1875 L 114.089844 80.207031 C 114.558594 79.496094 114.996094 78.984375 115.410156 78.671875 C 116.15625 78.113281 117.101562 77.832031 118.242188 77.832031 C 119.671875 77.832031 120.84375 78.207031 121.753906 78.957031 C 122.664062 79.703125 123.117188 80.945312 123.117188 82.679688 L 123.117188 92 L 119.410156 92 L 119.410156 83.582031 C 119.410156 82.855469 119.3125 82.296875 119.121094 81.90625 C 118.765625 81.195312 118.085938 80.839844 117.089844 80.839844 Z M 135.992188 78.796875 C 137.074219 79.492188 137.699219 80.683594 137.859375 82.375 L 134.238281 82.375 C 134.1875 81.910156 134.058594 81.542969 133.847656 81.273438 C 133.449219 80.78125 132.773438 80.535156 131.816406 80.535156 C 131.027344 80.535156 130.46875 80.660156 130.132812 80.90625 C 129.800781 81.148438 129.632812 81.4375 129.632812 81.765625 C 129.632812 82.179688 129.808594 82.484375 130.164062 82.667969 C 130.519531 82.863281 131.777344 83.199219 133.933594 83.671875 C 135.375 84.011719 136.453125 84.523438 137.171875 85.207031 C 137.882812 85.902344 138.238281 86.769531 138.238281 87.8125 C 138.238281 89.183594 137.730469 90.300781 136.710938 91.167969 C 135.691406 92.035156 134.113281 92.46875 131.980469 92.46875 C 129.804688 92.46875 128.199219 92.011719 127.164062 91.09375 C 126.125 90.175781 125.605469 89.003906 125.605469 87.582031 L 129.277344 87.582031 C 129.351562 88.226562 129.519531 88.683594 129.769531 88.953125 C 130.21875 89.4375 131.050781 89.675781 132.261719 89.675781 C 132.972656 89.675781 133.535156 89.570312 133.953125 89.359375 C 134.371094 89.148438 134.582031 88.832031 134.582031 88.40625 C 134.582031 88 134.414062 87.691406 134.074219 87.480469 C 133.738281 87.269531 132.480469 86.90625 130.304688 86.390625 C 128.738281 86 127.632812 85.511719 126.992188 84.929688 C 126.347656 84.351562 126.027344 83.523438 126.027344 82.441406 C 126.027344 81.164062 126.527344 80.0625 127.53125 79.144531 C 128.535156 78.226562 129.945312 77.769531 131.765625 77.769531 C 133.492188 77.769531 134.902344 78.109375 135.992188 78.796875 Z M 20.769531 71.980469 "/>
<path fill-rule="nonzero" fill="rgb(41.960784%, 44.705882%, 50.196078%)" fill-opacity="1" d="M 22.496094 110.960938 C 22.851562 110.960938 23.136719 110.921875 23.359375 110.84375 C 23.777344 110.695312 23.988281 110.414062 23.988281 110.007812 C 23.988281 109.769531 23.886719 109.585938 23.675781 109.457031 C 23.46875 109.328125 23.140625 109.21875 22.695312 109.117188 L 21.933594 108.949219 C 21.183594 108.78125 20.667969 108.59375 20.378906 108.398438 C 19.894531 108.066406 19.652344 107.546875 19.652344 106.839844 C 19.652344 106.195312 19.886719 105.660156 20.355469 105.234375 C 20.824219 104.804688 21.511719 104.59375 22.421875 104.59375 C 23.179688 104.59375 23.828125 104.792969 24.363281 105.195312 C 24.898438 105.597656 25.179688 106.179688 25.207031 106.945312 L 23.761719 106.945312 C 23.734375 106.511719 23.542969 106.207031 23.191406 106.023438 C 22.957031 105.902344 22.667969 105.84375 22.320312 105.84375 C 21.933594 105.84375 21.621094 105.921875 21.390625 106.078125 C 21.160156 106.234375 21.042969 106.453125 21.042969 106.730469 C 21.042969 106.988281 21.160156 107.179688 21.386719 107.308594 C 21.535156 107.390625 21.847656 107.492188 22.324219 107.605469 L 23.566406 107.902344 C 24.109375 108.03125 24.519531 108.207031 24.792969 108.425781 C 25.222656 108.765625 25.441406 109.253906 25.441406 109.894531 C 25.441406 110.554688 25.1875 111.097656 24.683594 111.535156 C 24.183594 111.96875 23.472656 112.1875 22.554688 112.1875 C 21.617188 112.1875 20.878906 111.972656 20.339844 111.542969 C 19.804688 111.117188 19.535156 110.527344 19.535156 109.777344 L 20.972656 109.777344 C 21.019531 110.105469 21.105469 110.351562 21.238281 110.515625 C 21.484375 110.8125 21.902344 110.960938 22.496094 110.960938 Z M 31.835938 112 L 28.574219 112 L 28.574219 104.804688 L 32.070312 104.804688 C 32.953125 104.816406 33.578125 105.070312 33.945312 105.570312 C 34.167969 105.875 34.277344 106.242188 34.277344 106.667969 C 34.277344 107.109375 34.167969 107.460938 33.945312 107.726562 C 33.820312 107.875 33.640625 108.015625 33.398438 108.136719 C 33.765625 108.269531 34.042969 108.484375 34.230469 108.773438 C 34.417969 109.0625 34.511719 109.414062 34.511719 109.828125 C 34.511719 110.253906 34.40625 110.636719 34.191406 110.976562 C 34.054688 111.199219 33.882812 111.386719 33.679688 111.539062 C 33.445312 111.714844 33.175781 111.835938 32.859375 111.902344 C 32.546875 111.96875 32.203125 112 31.835938 112 Z M 31.804688 108.832031 L 30.011719 108.832031 L 30.011719 110.75 L 31.777344 110.75 C 32.09375 110.75 32.339844 110.707031 32.515625 110.625 C 32.835938 110.46875 32.992188 110.167969 32.992188 109.726562 C 32.992188 109.351562 32.839844 109.09375 32.53125 108.953125 C 32.359375 108.875 32.117188 108.835938 31.804688 108.832031 Z M 32.550781 107.460938 C 32.746094 107.34375 32.84375 107.132812 32.84375 106.828125 C 32.84375 106.492188 32.710938 106.273438 32.453125 106.164062 C 32.226562 106.089844 31.941406 106.054688 31.59375 106.054688 L 30.011719 106.054688 L 30.011719 107.640625 L 31.777344 107.640625 C 32.09375 107.640625 32.351562 107.578125 32.550781 107.460938 Z M 40.957031 112.199219 C 39.929688 112.199219 39.140625 111.921875 38.597656 111.359375 C 37.871094 110.671875 37.503906 109.683594 37.503906 108.390625 C 37.503906 107.074219 37.871094 106.082031 38.597656 105.421875 C 39.140625 104.863281 39.929688 104.582031 40.957031 104.582031 C 41.984375 104.582031 42.773438 104.863281 43.316406 105.421875 C 44.042969 106.082031 44.402344 107.074219 44.402344 108.390625 C 44.402344 109.683594 44.042969 110.671875 43.316406 111.359375 C 42.773438 111.921875 41.984375 112.199219 40.957031 112.199219 Z M 42.378906 110.265625 C 42.726562 109.828125 42.902344 109.203125 42.902344 108.390625 C 42.902344 107.585938 42.726562 106.960938 42.375 106.519531 C 42.027344 106.078125 41.550781 105.859375 40.957031 105.859375 C 40.363281 105.859375 39.886719 106.078125 39.53125 106.515625 C 39.175781 106.957031 39 107.582031 39 108.390625 C 39 109.203125 39.175781 109.828125 39.53125 110.265625 C 39.886719 110.707031 40.363281 110.925781 40.957031 110.925781 C 41.550781 110.925781 42.027344 110.707031 42.378906 110.265625 Z M 48.929688 112 L 47.527344 112 L 47.527344 104.804688 L 49.714844 104.804688 L 51.023438 110.460938 L 52.320312 104.804688 L 54.484375 104.804688 L 54.484375 112 L 53.082031 112 L 53.082031 107.132812 C 53.082031 106.992188 53.085938 106.796875 53.085938 106.542969 C 53.089844 106.289062 53.09375 106.097656 53.09375 105.960938 L 51.730469 112 L 50.269531 112 L 48.917969 105.960938 C 48.917969 106.097656 48.917969 106.292969 48.921875 106.542969 C 48.925781 106.796875 48.929688 106.992188 48.929688 107.132812 Z M 67.074219 111.824219 C 66.675781 112.070312 66.1875 112.191406 65.609375 112.191406 C 64.65625 112.191406 63.875 111.859375 63.265625 111.199219 C 62.632812 110.535156 62.3125 109.625 62.3125 108.476562 C 62.3125 107.308594 62.632812 106.375 63.273438 105.671875 C 63.914062 104.96875 64.765625 104.617188 65.820312 104.617188 C 66.734375 104.617188 67.46875 104.847656 68.023438 105.3125 C 68.578125 105.777344 68.898438 106.355469 68.976562 107.046875 L 67.5 107.046875 C 67.386719 106.554688 67.105469 106.214844 66.664062 106.019531 C 66.417969 105.910156 66.140625 105.859375 65.839844 105.859375 C 65.257812 105.859375 64.785156 106.078125 64.410156 106.515625 C 64.039062 106.953125 63.851562 107.609375 63.851562 108.488281 C 63.851562 109.375 64.054688 110 64.457031 110.367188 C 64.859375 110.734375 65.320312 110.921875 65.835938 110.921875 C 66.339844 110.921875 66.75 110.773438 67.074219 110.484375 C 67.398438 110.191406 67.59375 109.8125 67.671875 109.339844 L 66.003906 109.339844 L 66.003906 108.136719 L 69.003906 108.136719 L 69.003906 112 L 68.007812 112 L 67.855469 111.101562 C 67.566406 111.445312 67.304688 111.683594 67.074219 111.824219 Z M 77.453125 108.855469 L 73.953125 108.855469 L 73.953125 110.707031 L 77.9375 110.707031 L 77.9375 112 L 72.484375 112 L 72.484375 104.804688 L 77.765625 104.804688 L 77.765625 106.078125 L 73.953125 106.078125 L 73.953125 107.605469 L 77.453125 107.605469 Z M 86.929688 112 L 85.425781 112 L 82.488281 106.886719 L 82.488281 112 L 81.085938 112 L 81.085938 104.804688 L 82.660156 104.804688 L 85.527344 109.828125 L 85.527344 104.804688 L 86.929688 104.804688 Z M 95.34375 108.855469 L 91.84375 108.855469 L 91.84375 110.707031 L 95.828125 110.707031 L 95.828125 112 L 90.375 112 L 90.375 104.804688 L 95.65625 104.804688 L 95.65625 106.078125 L 91.84375 106.078125 L 91.84375 107.605469 L 95.34375 107.605469 Z M 102.058594 109.179688 L 100.503906 109.179688 L 100.503906 112 L 99.035156 112 L 99.035156 104.804688 L 102.566406 104.804688 C 103.070312 104.8125 103.457031 104.875 103.730469 104.988281 C 104 105.101562 104.230469 105.269531 104.417969 105.492188 C 104.574219 105.671875 104.699219 105.875 104.792969 106.097656 C 104.882812 106.320312 104.925781 106.570312 104.925781 106.851562 C 104.925781 107.195312 104.839844 107.53125 104.667969 107.863281 C 104.496094 108.191406 104.210938 108.425781 103.816406 108.5625 C 104.148438 108.695312 104.382812 108.886719 104.519531 109.132812 C 104.660156 109.378906 104.726562 109.753906 104.726562 110.257812 L 104.726562 110.742188 C 104.726562 111.070312 104.742188 111.292969 104.765625 111.410156 C 104.804688 111.59375 104.898438 111.730469 105.039062 111.820312 L 105.039062 112 L 103.386719 112 C 103.339844 111.839844 103.308594 111.710938 103.285156 111.613281 C 103.246094 111.414062 103.226562 111.207031 103.222656 110.992188 L 103.214844 110.324219 C 103.207031 109.867188 103.125 109.558594 102.960938 109.40625 C 102.800781 109.253906 102.5 109.179688 102.058594 109.179688 Z M 102.96875 107.867188 C 103.269531 107.730469 103.417969 107.460938 103.417969 107.058594 C 103.417969 106.621094 103.273438 106.328125 102.984375 106.179688 C 102.820312 106.09375 102.578125 106.054688 102.253906 106.054688 L 100.503906 106.054688 L 100.503906 107.984375 L 102.207031 107.984375 C 102.546875 107.984375 102.800781 107.945312 102.96875 107.867188 Z M 112.4375 110.519531 L 109.785156 110.519531 L 109.289062 112 L 107.714844 112 L 110.28125 104.804688 L 111.984375 104.804688 L 114.53125 112 L 112.898438 112 Z M 112.015625 109.28125 L 111.117188 106.449219 L 110.191406 109.28125 Z M 121.9375 104.804688 L 121.9375 106.078125 L 119.78125 106.078125 L 119.78125 112 L 118.269531 112 L 118.269531 106.078125 L 116.105469 106.078125 L 116.105469 104.804688 Z M 127.824219 112.199219 C 126.796875 112.199219 126.007812 111.921875 125.464844 111.359375 C 124.738281 110.671875 124.371094 109.683594 124.371094 108.390625 C 124.371094 107.074219 124.738281 106.082031 125.464844 105.421875 C 126.007812 104.863281 126.796875 104.582031 127.824219 104.582031 C 128.851562 104.582031 129.640625 104.863281 130.183594 105.421875 C 130.910156 106.082031 131.269531 107.074219 131.269531 108.390625 C 131.269531 109.683594 130.910156 110.671875 130.183594 111.359375 C 129.640625 111.921875 128.851562 112.199219 127.824219 112.199219 Z M 129.246094 110.265625 C 129.59375 109.828125 129.769531 109.203125 129.769531 108.390625 C 129.769531 107.585938 129.59375 106.960938 129.242188 106.519531 C 128.894531 106.078125 128.417969 105.859375 127.824219 105.859375 C 127.230469 105.859375 126.753906 106.078125 126.398438 106.515625 C 126.042969 106.957031 125.867188 107.582031 125.867188 108.390625 C 125.867188 109.203125 126.042969 109.828125 126.398438 110.265625 C 126.753906 110.707031 127.230469 110.925781 127.824219 110.925781 C 128.417969 110.925781 128.894531 110.707031 129.246094 110.265625 Z M 137.476562 109.179688 L 135.921875 109.179688 L 135.921875 112 L 134.453125 112 L 134.453125 104.804688 L 137.984375 104.804688 C 138.488281 104.8125 138.875 104.875 139.148438 104.988281 C 139.417969 105.101562 139.648438 105.269531 139.835938 105.492188 C 139.992188 105.671875 140.117188 105.875 140.210938 106.097656 C 140.300781 106.320312 140.34375 106.570312 140.34375 106.851562 C 140.34375 107.195312 140.257812 107.53125 140.085938 107.863281 C 139.914062 108.191406 139.628906 108.425781 139.234375 108.5625 C 139.566406 108.695312 139.800781 108.886719 139.9375 109.132812 C 140.078125 109.378906 140.144531 109.753906 140.144531 110.257812 L 140.144531 110.742188 C 140.144531 111.070312 140.160156 111.292969 140.183594 111.410156 C 140.222656 111.59375 140.316406 111.730469 140.457031 111.820312 L 140.457031 112 L 138.804688 112 C 138.757812 111.839844 138.726562 111.710938 138.703125 111.613281 C 138.664062 111.414062 138.644531 111.207031 138.640625 110.992188 L 138.632812 110.324219 C 138.625 109.867188 138.542969 109.558594 138.378906 109.40625 C 138.21875 109.253906 137.917969 109.179688 137.476562 109.179688 Z M 138.386719 107.867188 C 138.6875 107.730469 138.835938 107.460938 138.835938 107.058594 C 138.835938 106.621094 138.691406 106.328125 138.402344 106.179688 C 138.238281 106.09375 137.996094 106.054688 137.671875 106.054688 L 135.921875 106.054688 L 135.921875 107.984375 L 137.625 107.984375 C 137.964844 107.984375 138.21875 107.945312 138.386719 107.867188 Z M 19.121094 104.300781 "/>
</svg>
